<?xml version="1.0" encoding="UTF-8" standalone="no"?>
<!-- Created with Inkscape (http://www.inkscape.org/) -->

<svg
   xmlns:dc="http://purl.org/dc/elements/1.1/"
   xmlns:cc="http://creativecommons.org/ns#"
   xmlns:rdf="http://www.w3.org/1999/02/22-rdf-syntax-ns#"
   xmlns:svg="http://www.w3.org/2000/svg"
   xmlns="http://www.w3.org/2000/svg"
   xmlns:sodipodi="http://sodipodi.sourceforge.net/DTD/sodipodi-0.dtd"
   xmlns:inkscape="http://www.inkscape.org/namespaces/inkscape"
   width="512"
   height="512"
   id="svg2"
   version="1.1"
   inkscape:version="0.48.4 r9939"
   sodipodi:docname="Icon.svg">
  <defs
     id="defs4">
    <filter
       id="filter11099"
       inkscape:label="Torn edges"
       inkscape:menu="Distort"
       inkscape:menu-tooltip="Displace the outside of shapes and pictures without altering their content"
       height="1.4"
       y="-0.2"
       width="1.4"
       x="-0.2"
       color-interpolation-filters="sRGB">
      <feTurbulence
         id="feTurbulence11101"
         baseFrequency="0.10000000000000001"
         numOctaves="5"
         type="turbulence"
         result="result91"
         seed="0" />
      <feDisplacementMap
         id="feDisplacementMap11103"
         in2="result91"
         scale="25"
         result="result5"
         xChannelSelector="R"
         in="SourceGraphic" />
      <feComposite
         id="feComposite11105"
         in2="result5"
         in="SourceGraphic"
         operator="atop"
         result="fbSourceGraphic" />
      <feColorMatrix
         result="fbSourceGraphicAlpha"
         in="fbSourceGraphic"
         values="0 0 0 -1 0 0 0 0 -1 0 0 0 0 -1 0 0 0 0 1 0"
         id="feColorMatrix11147" />
      <feTurbulence
         id="feTurbulence11149"
         numOctaves="5"
         seed="0"
         type="fractalNoise"
         baseFrequency="0.1"
         result="result1"
         in="fbSourceGraphic" />
      <feGaussianBlur
         id="feGaussianBlur11151"
         stdDeviation="2"
         result="result2" />
      <feDisplacementMap
         id="feDisplacementMap11153"
         in2="result2"
         scale="50"
         yChannelSelector="B"
         xChannelSelector="R"
         in="fbSourceGraphic"
         result="fbSourceGraphic" />
      <feColorMatrix
         result="fbSourceGraphicAlpha"
         in="fbSourceGraphic"
         values="0 0 0 -1 0 0 0 0 -1 0 0 0 0 -1 0 0 0 0 1 0"
         id="feColorMatrix11195" />
      <feTurbulence
         id="feTurbulence11197"
         baseFrequency="0.05"
         numOctaves="5"
         type="fractalNoise"
         result="result91"
         in="fbSourceGraphic" />
      <feDisplacementMap
         id="feDisplacementMap11199"
         in2="result91"
         scale="25"
         result="result5"
         xChannelSelector="R"
         in="fbSourceGraphic" />
      <feComposite
         id="feComposite11201"
         in2="result5"
         in="fbSourceGraphic"
         operator="atop" />
    </filter>
    <filter
       id="filter3350"
       inkscape:label="Button"
       x="0"
       y="0"
       width="1"
       height="1"
       inkscape:menu="Bevels"
       inkscape:menu-tooltip="Soft bevel, slightly depressed middle"
       color-interpolation-filters="sRGB">
      <feGaussianBlur
         id="feGaussianBlur3352"
         stdDeviation="2.3"
         in="SourceAlpha"
         result="result0" />
      <feMorphology
         id="feMorphology3354"
         in="SourceAlpha"
         radius="6.6"
         result="result1" />
      <feGaussianBlur
         id="feGaussianBlur3356"
         stdDeviation="8.9"
         in="result1" />
      <feColorMatrix
         id="feColorMatrix3358"
         values="1 0 0 0 0 0 1 0 0 0 0 0 1 0 0 0 0 0 0.3 0"
         result="result91" />
      <feComposite
         id="feComposite3360"
         in2="result91"
         in="result0"
         operator="out"
         result="result2" />
      <feGaussianBlur
         id="feGaussianBlur3362"
         stdDeviation="1.7"
         result="result4" />
      <feDiffuseLighting
         id="feDiffuseLighting3364"
         surfaceScale="10"
         result="result92">
        <feDistantLight
           id="feDistantLight3366"
           azimuth="225"
           elevation="45" />
      </feDiffuseLighting>
      <feBlend
         id="feBlend3368"
         in2="SourceGraphic"
         mode="multiply"
         result="result93" />
      <feComposite
         id="feComposite3370"
         in2="SourceAlpha"
         operator="in"
         result="result3" />
      <feSpecularLighting
         id="feSpecularLighting3372"
         in="result4"
         surfaceScale="5"
         specularExponent="17.9"
         result="result94">
        <feDistantLight
           id="feDistantLight3374"
           azimuth="225"
           elevation="45" />
      </feSpecularLighting>
      <feComposite
         id="feComposite3376"
         in2="result3"
         operator="atop" />
    </filter>
    <clipPath
       clipPathUnits="userSpaceOnUse"
       id="clipPath3504">
      <path
         inkscape:connector-curvature="0"
         id="path3506"
         d="m -43.046766,582.03796 c -7.622468,3.90834 -29.39834,13.18116 -37.580863,16.00309 -36.048391,12.43197 -68.395621,14.24335 -96.062571,5.37934 -13.25574,-4.24692 -36.63888,-16.56225 -48.70502,-25.65178 -11.16057,-8.40734 -19.22585,-18.88513 -20.27591,-26.3409 -1.22958,-8.73042 1.89525,-16.21591 10.28699,-24.64227 4.20262,-4.21995 6.87229,-6.1589 15.18222,-11.02659 11.12408,-6.51616 18.13755,-9.58928 32.00663,-14.02459 10.46412,-3.34639 15.41187,-6.37176 19.93293,-12.18816 3.67197,-4.72409 5.42509,-9.16362 5.84714,-14.8071 1.00843,-13.48432 -9.18846,-23.00384 -26.40578,-24.65166 -3.33724,-0.31938 -15.83156,-0.0807 -27.76512,0.53066 -40.17441,2.05778 -56.32972,-0.19451 -68.73574,-9.58267 -6.83897,-5.17532 -9.61264,-8.80926 -12.39698,-16.24192 -7.30799,-19.50833 -2.05167,-49.5152 16.23152,-92.66113 4.59849,-10.85187 16.09266,-34.61616 21.05951,-43.54078 12.62759,-22.68961 41.98182,-55.74366 72.57007,-81.71679 61.2397,-51.99992 125.420251,-84.20839 182.3069384,-91.48921 45.3180066,-5.80019 86.3004236,5.80003 117.7618416,33.3329 11.76524,10.29613 26.32526,27.28968 36.21489,42.26776 10.31151,15.61699 12.54033,20.03821 20.04255,39.75843 6.13582,16.12836 7.19424,19.473 8.87811,28.05572 9.04593,46.1073 1.88476,94.27787 -21.31605,143.38535 -11.61224,24.57886 -29.56881,51.85402 -46.19432,70.16708 -7.50291,8.26448 -9.51114,10.07972 -24.37944,22.03652 -25.246209,20.30249 -49.158607,38.37194 -68.124731,51.47849 -11.862844,8.19786 -47.734779,29.68712 -60.378815,36.17021 z M -162.58368,375.09918 c 11.54108,-10.14449 17.44988,-21.30217 18.0056,-34.00019 0.11274,-2.57628 -0.47025,-5.06647 -2.35443,-10.0565 -2.19913,-5.82584 -2.88034,-6.95015 -5.59566,-9.24504 -6.60814,-5.58494 -14.00611,-5.94967 -23.38988,-1.15319 -7.8243,3.99939 -13.69392,9.77775 -20.16563,19.85216 -7.39211,11.50714 -10.0641,23.28951 -7.41266,32.6866 3.01639,10.69061 10.94106,15.46187 21.66006,13.04107 5.01147,-1.1318 13.39496,-5.97612 19.2526,-11.12491 l 0,0 z"
         style="fill:#a0a0a0;stroke:none;display:inline" />
    </clipPath>
    <clipPath
       clipPathUnits="userSpaceOnUse"
       id="clipPath3508">
      <path
         inkscape:connector-curvature="0"
         id="path3510"
         d="m 13.407067,326.5938 c -9.5695421,4.39386 -36.907818,14.8186 -47.180475,17.99109 -45.256556,13.97634 -85.866522,16.01275 -120.600682,6.0476 -16.64177,-4.7745 -45.99788,-18.61972 -61.14618,-28.8384 -14.01141,-9.45176 -24.13687,-21.23117 -25.45516,-29.61313 -1.54366,-9.81498 2.37938,-18.23035 12.91469,-27.70349 5.27613,-4.74418 8.62774,-6.924 19.06034,-12.39638 13.96561,-7.32564 22.77059,-10.78052 40.18237,-15.76681 13.13706,-3.7621 19.34867,-7.1633 25.02457,-13.70224 4.60994,-5.31095 6.81087,-10.30199 7.34073,-16.64654 1.26603,-15.15942 -11.53554,-25.86151 -33.15083,-27.71403 -4.18971,-0.35906 -19.87556,-0.0907 -34.85741,0.59657 -50.43652,2.31341 -70.71852,-0.21867 -86.29352,-10.77308 -8.58591,-5.81823 -12.06809,-9.90361 -15.56365,-18.25959 -9.17475,-21.93178 -2.57576,-55.666285 20.37767,-104.172072 5.77313,-12.199949 20.20335,-38.9163884 26.43893,-48.9496801 15.85316,-25.5082529 52.70561,-62.6684769 91.10728,-91.8681559 76.882705,-58.459662 157.45746,-94.669272 228.875216,-102.854562 56.893984,-6.52072 108.344904,6.52056 147.842784,37.47372 14.77054,11.57518 33.04976,30.67977 45.46559,47.51852 12.94547,17.557029 15.74362,22.527482 25.16219,44.697467 7.70314,18.131927 9.03193,21.892063 11.14593,31.540977 11.35661,51.835028 2.36619,105.989651 -26.761,161.197566 -14.57846,27.63219 -37.12183,58.29564 -57.99414,78.88365 -9.41945,9.29115 -11.94066,11.33189 -30.6069,24.77404 -31.69507,22.82459 -61.71563,43.13874 -85.526434,57.87347 -14.893075,9.21624 -59.928096,33.37503 -75.801909,40.66349 z M -136.66421,93.947815 c 14.48912,-11.404706 21.90724,-23.948453 22.60492,-38.223906 0.14154,-2.896323 -0.59037,-5.69586 -2.95585,-11.305778 -2.76087,-6.549564 -3.61609,-7.813538 -7.025,-10.393511 -8.29611,-6.278737 -17.58381,-6.688781 -29.36456,-1.296445 -9.82294,4.496216 -17.19188,10.992399 -25.31672,22.318312 -9.28034,12.93663 -12.63486,26.182671 -9.30614,36.747133 3.78689,12.01866 13.73583,17.38264 27.19289,14.66111 6.29158,-1.2724 16.81655,-6.718512 24.17046,-12.506915 l 0,0 z"
         style="fill:#a0a0a0;stroke:none;display:inline" />
    </clipPath>
    <clipPath
       clipPathUnits="userSpaceOnUse"
       id="clipPath3512">
      <path
         inkscape:connector-curvature="0"
         id="path3514"
         d="m 177.11526,261.20346 c -6.69585,3.6381 -25.82454,12.26974 -33.01236,14.89655 C 112.43671,287.67236 84.021766,289.3585 59.718146,281.1074 48.073833,277.15413 27.533252,265.69034 16.933931,257.22932 7.1300905,249.40331 0.04526907,239.65 -0.8771438,232.70977 c -1.0801038,-8.12676 1.66485748,-15.09465 9.0364559,-22.93837 3.6917279,-3.92816 6.0368639,-5.73304 13.3365929,-10.26415 9.771788,-6.0656 15.932666,-8.92622 28.11576,-13.05485 9.192051,-3.115 13.538332,-5.93118 17.509785,-11.3454 3.225589,-4.39744 4.765592,-8.53 5.136334,-13.78327 0.885848,-12.55193 -8.07146,-21.41322 -23.195764,-22.9471 -2.931553,-0.29729 -13.907,-0.0751 -24.389861,0.49396 -35.290626,1.9155 -49.482015,-0.18105 -60.379904,-8.92006 -6.007593,-4.81747 -8.444084,-8.20015 -10.889943,-15.11887 -6.419605,-18.159418 -1.802266,-46.091446 14.258334,-86.254033 4.039477,-10.101507 14.136362,-32.2226059 18.499419,-40.530129 C -2.7474161,-33.073228 23.03838,-63.841737 49.908177,-88.018948 103.7033,-136.4233 160.08176,-166.4047 210.05303,-173.18209 c 39.80894,-5.39913 75.80935,5.39899 103.44616,31.02808 10.33501,9.5842 23.12505,25.40272 31.81245,39.34513 9.05799,14.53715 11.01587,18.652664 17.60608,37.009318 5.38992,15.01316 6.31968,18.126536 7.79885,26.115797 7.94626,42.9191846 1.65563,87.758984 -18.72477,133.470903 -10.2006,22.879342 -25.97429,48.268552 -40.57873,65.315332 -6.59082,7.69303 -8.35492,9.38276 -21.41576,20.5128 -22.17716,18.89867 -43.18266,35.7187 -59.84317,47.91899 -10.42074,7.63101 -41.93192,27.63439 -53.03888,33.6692 z M 72.109809,68.573564 C 82.247901,59.130515 87.438394,48.744345 87.926558,36.92433 88.025598,34.526187 87.513474,32.208182 85.858343,27.563194 83.926553,22.140182 83.328152,21.093617 80.942924,18.95741 75.1381,13.758643 68.63946,13.419128 60.396426,17.883959 53.52328,21.606808 48.367203,26.98562 42.682222,36.363427 36.188735,47.074903 33.841562,58.042569 36.170678,66.7899 c 2.649702,9.951401 9.611016,14.39275 19.026969,12.139338 4.402248,-1.053541 11.766605,-5.562901 16.912162,-10.355674 l 0,0 z"
         style="fill:#a0a0a0;stroke:none;display:inline" />
    </clipPath>
    <clipPath
       clipPathUnits="userSpaceOnUse"
       id="clipPath3516">
      <path
         inkscape:connector-curvature="0"
         id="path3518"
         d="m -80.403725,464.04229 c -8.884474,4.54053 -34.265645,15.31329 -43.802905,18.59169 -42.01671,14.44291 -79.71948,16.5473 -111.96707,6.24948 -15.45042,-4.93389 -42.70497,-19.24131 -56.76883,-29.80112 -13.00836,-9.76729 -22.40895,-21.93993 -23.63287,-30.60171 -1.43315,-10.14263 2.20904,-18.83895 11.99015,-28.62833 4.89842,-4.90255 8.01009,-7.15514 17.69584,-12.8102 12.96583,-7.5702 21.14048,-11.14041 37.30578,-16.29317 12.1966,-3.88768 17.96353,-7.40243 23.2331,-14.15966 4.27992,-5.48825 6.3233,-10.6459 6.81522,-17.20226 1.1754,-15.66549 -10.70973,-26.72485 -30.77762,-28.63921 -3.88977,-0.37105 -18.45269,-0.0938 -32.36202,0.61649 -46.82586,2.39064 -65.6559,-0.22597 -80.11591,-11.13272 -7.97126,-6.01247 -11.20415,-10.23423 -14.44947,-18.86916 -8.51795,-22.66394 -2.39137,-57.52461 18.91886,-107.64968 5.35984,-12.60722 18.75703,-40.21554 24.54621,-50.58378 14.71827,-26.359799 48.93251,-64.760552 84.58507,-94.935012 71.3788,-60.411233 146.18534,-97.829637 212.490417,-106.28818 52.82104,-6.738403 100.588673,6.738232 137.258963,38.724715 13.71315,11.961598 30.68379,31.7039599 42.21079,49.1048428 12.01872,18.1431392 14.61655,23.2795222 23.36086,46.1896132 7.15169,18.73723 8.38536,22.622892 10.34801,32.593919 10.54361,53.565452 2.19681,109.527932 -24.84522,166.578862 -13.53481,28.55465 -34.46434,60.24174 -53.842437,81.51705 -8.745123,9.60132 -11.085848,11.71018 -28.415802,25.60108 -29.426075,23.58655 -57.297506,44.57885 -79.403738,59.80547 -13.826905,9.52391 -55.637944,34.4892 -70.375378,42.02098 z M -219.73165,223.62981 c 13.45187,-11.78543 20.33894,-24.74793 20.98667,-39.49994 0.13141,-2.99301 -0.54811,-5.88601 -2.74424,-11.6832 -2.56322,-6.76821 -3.35722,-8.07438 -6.52209,-10.74048 -7.70221,-6.48835 -16.32502,-6.91208 -27.26241,-1.33973 -9.11972,4.64632 -15.96114,11.35936 -23.50433,23.06337 -8.61598,13.3685 -11.73035,27.05673 -8.63993,37.97387 3.51579,12.41989 12.75251,17.96293 25.24619,15.15055 5.84119,-1.31488 15.61268,-6.9428 22.44014,-12.92444 l 0,0 z"
         style="fill:#a0a0a0;stroke:none;display:inline" />
    </clipPath>
    <clipPath
       clipPathUnits="userSpaceOnUse"
       id="clipPath3520">
      <path
         inkscape:connector-curvature="0"
         id="path3522"
         d="m 216.48617,349.25695 c -5.75121,2.41084 -22.18128,8.13074 -28.35506,9.87144 -27.1988,7.6686 -51.60504,8.78595 -72.47996,3.31822 -10.00156,-2.61969 -27.64433,-10.21636 -36.748326,-15.82319 -8.420738,-5.18603 -14.506051,-11.64921 -15.298332,-16.24827 -0.927726,-5.38532 1.429983,-10.00271 7.761615,-15.20048 3.170908,-2.60305 5.185198,-3.79909 11.4551,-6.8017 8.393208,-4.01947 13.684925,-5.91511 24.149253,-8.65101 7.89526,-2.0642 11.62838,-3.93039 15.03955,-7.51821 2.77053,-2.91403 4.09328,-5.65254 4.41172,-9.1337 0.76087,-8.31774 -6.93276,-14.18981 -19.92337,-15.20626 -2.51797,-0.19701 -11.945032,-0.0498 -20.948997,0.32733 -30.311913,1.26933 -42.501216,-0.11998 -51.861658,-5.91103 -5.160056,-3.19237 -7.252813,-5.43395 -9.353617,-10.01875 -5.513943,-12.03363 -1.548007,-30.54324 12.246804,-57.15762 3.469597,-6.69393 12.142039,-21.35283 15.889567,-26.85794 9.527614,-13.99599 31.675614,-34.38523 54.754691,-50.40665 46.20583,-32.075917 94.63056,-51.943575 137.55202,-56.43472 34.19279,-3.577819 65.11434,3.577728 88.85223,20.561255 8.87697,6.351124 19.86262,16.833518 27.32442,26.072685 7.78012,9.63327 9.46178,12.36048 15.12226,24.52481 4.62952,9.94871 5.42811,12.01184 6.69861,17.30605 6.82522,28.44109 1.42206,58.1549 -16.08313,88.44663 -8.76153,15.16136 -22.3099,31.98593 -34.85398,43.28226 -5.661,5.0979 -7.17623,6.21763 -18.39448,13.59313 -19.04846,12.5235 -37.09055,23.66957 -51.40064,31.75428 -8.95061,5.05682 -36.01627,18.31237 -45.55629,22.31144 z M 126.29463,221.60767 c 8.70783,-6.25759 13.16606,-13.14015 13.58536,-20.97288 0.0851,-1.58916 -0.35481,-3.12523 -1.77644,-6.2033 -1.65926,-3.59365 -2.17324,-4.28717 -4.22196,-5.70276 -4.9859,-3.44505 -10.56772,-3.67003 -17.64785,-0.71134 -5.9035,2.467 -10.33217,6.03136 -15.21513,12.24571 -5.577402,7.09813 -7.593441,14.36603 -5.592911,20.16259 2.275889,6.59446 8.255121,9.53759 16.342691,8.04433 3.78119,-0.69815 10.1066,-3.68635 14.52624,-6.86235 l 0,0 z"
         style="fill:#a0a0a0;stroke:none;display:inline" />
    </clipPath>
    <clipPath
       clipPathUnits="userSpaceOnUse"
       id="clipPath3524">
      <path
         inkscape:connector-curvature="0"
         id="path3526"
         d="m 104.78811,432.96058 c -8.936511,2.78592 -34.466331,9.39575 -44.059441,11.40727 -42.262787,8.86172 -80.186361,10.15291 -112.622815,3.83449 -15.540904,-3.02728 -42.955074,-11.80586 -57.101294,-18.28503 -13.08455,-5.9929 -22.5402,-13.46165 -23.77128,-18.77625 -1.44154,-6.2232 2.22198,-11.55898 12.06037,-17.56544 4.92711,-3.00805 8.057,-4.39017 17.79948,-7.85994 13.041762,-4.64484 21.264284,-6.83541 37.524262,-9.99697 12.26803,-2.38537 18.068728,-4.5419 23.369166,-8.68793 4.304983,-3.36742 6.360324,-6.53199 6.85513,-10.55476 1.182283,-9.61185 -10.772452,-16.39753 -30.957871,-17.57213 -3.912552,-0.22766 -18.560764,-0.0575 -32.551553,0.37826 -47.100094,1.46682 -66.040414,-0.13865 -80.585114,-6.83069 -8.01794,-3.68906 -11.26977,-6.27939 -14.53409,-11.57752 -8.56783,-13.90588 -2.40537,-35.29529 19.02966,-66.05046 5.39123,-7.73539 18.86688,-24.67499 24.68996,-31.03661 14.80446,-16.17355 49.21908,-39.73504 85.080442,-58.24915 71.7968282,-37.06643 147.041477,-60.02519 213.734868,-65.21508 53.13039,-4.134474 101.17778,4.13437 138.06284,23.76027 13.79345,7.33926 30.86348,19.45255 42.45799,30.12918 12.08911,11.13206 14.70216,14.28359 23.49768,28.3405 7.19358,11.49658 8.43446,13.8807 10.40861,19.9986 10.60537,32.86608 2.20968,67.2029 -24.99072,102.20756 -13.61407,17.52023 -34.66618,36.96244 -54.15777,50.0163 -8.79633,5.89107 -11.15077,7.185 -28.58222,15.70802 -29.5984,14.47196 -57.63306,27.35218 -79.86876,36.69475 -13.90789,5.84358 -55.96379,21.1615 -70.78753,25.78276 z M -35.355807,285.45104 c 13.530649,-7.23117 20.45806,-15.18456 21.10958,-24.23593 0.132183,-1.83642 -0.551316,-3.61147 -2.760311,-7.16844 -2.578235,-4.15276 -3.376881,-4.95419 -6.560289,-6.59003 -7.74732,-3.98104 -16.420629,-4.24103 -27.422069,-0.82201 -9.173138,2.85083 -16.054616,6.96975 -23.64199,14.15096 -8.666432,8.20249 -11.799049,16.60116 -8.690531,23.29958 3.536385,7.62045 12.827196,11.02148 25.394052,9.2959 5.875393,-0.80677 15.704119,-4.25989 22.571558,-7.93003 l 0,0 z"
         style="fill:#a0a0a0;stroke:none;display:inline" />
    </clipPath>
  </defs>
  <sodipodi:namedview
     id="base"
     pagecolor="#ffffff"
     bordercolor="#666666"
     borderopacity="1.0"
     inkscape:pageopacity="0.0"
     inkscape:pageshadow="2"
     inkscape:zoom="0.49497475"
     inkscape:cx="450.24293"
     inkscape:cy="180.50806"
     inkscape:document-units="px"
     inkscape:current-layer="layer3"
     showgrid="false"
     inkscape:window-width="1857"
     inkscape:window-height="1056"
     inkscape:window-x="63"
     inkscape:window-y="24"
     inkscape:window-maximized="1"
     showguides="true"
     inkscape:guide-bbox="true"
     inkscape:snap-object-midpoints="false"
     inkscape:object-nodes="false"
     inkscape:snap-smooth-nodes="false"
     inkscape:snap-midpoints="false" />
  <metadata
     id="metadata7">
    <rdf:RDF>
      <cc:Work
         rdf:about="">
        <dc:format>image/svg+xml</dc:format>
        <dc:type
           rdf:resource="http://purl.org/dc/dcmitype/StillImage" />
        <dc:title />
      </cc:Work>
    </rdf:RDF>
  </metadata>
  <g
     inkscape:label="Background"
     inkscape:groupmode="layer"
     id="layer1"
     transform="translate(0,-540.36218)"
     style="display:inline"
     sodipodi:insensitive="true">
    <path
       style="fill:#deaa87;stroke:none;filter:url(#filter3350)"
       d="m 440.66457,921.5587 c -4.67827,7.91612 -19.47124,29.36267 -25.52967,37.01256 -26.69082,33.70175 -57.69171,58.17544 -92.06433,72.68004 -16.46857,6.9496 -49.1588,16.2309 -68.09094,19.3321 -17.51123,2.8687 -33.48746,2.2243 -40.16381,-1.6197 -7.8178,-4.5013 -10.33903,-11.378 -8.29999,-22.6384 1.02116,-5.6393 2.22952,-8.7637 6.87183,-17.7684 6.21443,-12.05417 10.91356,-19.015 21.44482,-31.76664 7.94576,-9.62097 10.61387,-15.06085 10.74911,-21.91547 0.1098,-5.56728 -1.48573,-9.57349 -5.32164,-13.36179 -9.1653,-9.0516 -26.55145,-7.56533 -45.02297,3.84885 -3.58036,2.21243 -15.90241,11.381 -27.38224,20.37466 -38.64713,30.27712 -56.51206,40.55139 -76.009592,43.71379 -10.748261,1.7433 -16.265686,1.5026 -24.65991,-1.0747 C 45.152911,1001.6101 27.771322,979.29255 13.510945,939.45886 9.9242302,929.44008 3.4946654,906.47196 1.730724,897.37685 -2.7538298,874.25378 1.6785166,832.65593 12.688423,794.53797 34.731046,718.2233 74.649683,652.00197 126.07865,606.43412 c 40.97019,-36.30101 90.73125,-58.73082 142.98701,-64.45148 19.54147,-2.13927 46.9329,-2.16233 68.13029,-0.0573 22.10157,2.19479 27.6677,3.31464 50.05433,10.07056 18.30908,5.52537 21.89181,6.82574 30.05268,10.90782 43.84125,21.92935 73.02194,56.83422 86.85979,103.89849 6.92598,23.55619 9.53817,53.35744 6.72002,76.6656 -1.27182,10.51872 -1.91166,13.08923 -7.76752,31.2051 -9.9432,30.76056 -20.23668,59.17965 -29.32541,80.96396 -5.68477,13.6256 -25.36496,52.79073 -33.12527,65.92188 z m -275.7549,-41.42895 c 3.89398,-14.59486 1.38766,-25.74849 -7.63736,-33.98785 -1.8311,-1.67168 -4.2934,-2.78786 -9.9439,-4.50764 -6.59632,-2.00829 -8.1263,-2.21047 -12.57491,-1.6665 -10.82632,1.32382 -18.50418,6.44019 -24.27475,16.17623 -4.81157,8.11806 -6.32491,15.9229 -5.19922,26.81428 1.28578,12.44033 7.50227,21.64249 17.24584,25.52866 11.08472,4.42109 22.61451,1.64446 31.51369,-7.58922 4.16064,-4.31704 8.89421,-13.36039 10.87061,-20.76796 l 0,0 z"
       id="path3000"
       inkscape:connector-curvature="0" />
  </g>
  <g
     inkscape:groupmode="layer"
     id="layer5"
     inkscape:label="Splatter"
     style="display:inline"
     sodipodi:insensitive="true">
    <path
       sodipodi:type="arc"
       style="opacity:0.5884774;fill:#0000ff;fill-opacity:1;stroke:none;display:inline;filter:url(#filter11099)"
       id="path10790-6"
       sodipodi:cx="103.03556"
       sodipodi:cy="195.82225"
       sodipodi:rx="123.23861"
       sodipodi:ry="123.23861"
       d="m 226.27417,195.82225 a 123.23861,123.23861 0 1 1 -246.477219,0 123.23861,123.23861 0 1 1 246.477219,0 z"
       transform="matrix(0.83587437,-0.60296929,1.0366692,0.84783978,-98.860545,74.32229)"
       clip-path="url(#clipPath3524)" />
    <path
       sodipodi:type="arc"
       style="opacity:0.5884774;fill:#be00ff;fill-opacity:1;stroke:none;display:inline;filter:url(#filter11099)"
       id="path10790"
       sodipodi:cx="103.03556"
       sodipodi:cy="195.82225"
       sodipodi:rx="123.23861"
       sodipodi:ry="123.23861"
       d="m 226.27417,195.82225 a 123.23861,123.23861 0 1 1 -246.477219,0 123.23861,123.23861 0 1 1 246.477219,0 z"
       transform="matrix(1.2988214,-0.93692237,1.1979589,0.9797505,-262.0063,238.86554)"
       clip-path="url(#clipPath3520)" />
    <path
       sodipodi:type="arc"
       style="opacity:0.5884774;fill:#ffff00;fill-opacity:1;stroke:none;display:inline;filter:url(#filter11099)"
       id="path10790-9"
       sodipodi:cx="103.03556"
       sodipodi:cy="195.82225"
       sodipodi:rx="123.23861"
       sodipodi:ry="123.23861"
       d="m 226.27417,195.82225 a 123.23861,123.23861 0 1 1 -246.477219,0 123.23861,123.23861 0 1 1 246.477219,0 z"
       transform="matrix(0.8407697,-0.6065006,0.63606767,0.52020783,210.00476,88.056142)"
       clip-path="url(#clipPath3516)" />
    <path
       sodipodi:type="arc"
       style="opacity:0.5884774;fill:#ff0000;fill-opacity:1;stroke:none;display:inline;filter:url(#filter11099)"
       id="path10790-0"
       sodipodi:cx="103.03556"
       sodipodi:cy="195.82225"
       sodipodi:rx="123.23861"
       sodipodi:ry="123.23861"
       d="m 226.27417,195.82225 a 123.23861,123.23861 0 1 1 -246.477219,0 123.23861,123.23861 0 1 1 246.477219,0 z"
       transform="matrix(1.1155869,-0.8047437,0.79384664,0.64924735,32.623088,351.16621)"
       clip-path="url(#clipPath3512)" />
    <path
       sodipodi:type="arc"
       style="opacity:0.5884774;fill:#ff6600;fill-opacity:1;stroke:none;display:inline;filter:url(#filter11099)"
       id="path10790-5"
       sodipodi:cx="103.03556"
       sodipodi:cy="195.82225"
       sodipodi:rx="123.23861"
       sodipodi:ry="123.23861"
       d="m 226.27417,195.82225 a 123.23861,123.23861 0 1 1 -246.477219,0 123.23861,123.23861 0 1 1 246.477219,0 z"
       transform="matrix(0.7805804,-0.56308223,0.65730168,0.53757407,212.43009,210.2004)"
       clip-path="url(#clipPath3508)" />
    <path
       sodipodi:type="arc"
       style="opacity:0.5884774;fill:#00ff00;fill-opacity:1;stroke:none;display:inline;filter:url(#filter11099)"
       id="path10790-3"
       sodipodi:cx="103.03556"
       sodipodi:cy="195.82225"
       sodipodi:rx="123.23861"
       sodipodi:ry="123.23861"
       d="m 226.27417,195.82225 a 123.23861,123.23861 0 1 1 -246.477219,0 123.23861,123.23861 0 1 1 246.477219,0 z"
       transform="matrix(0.97997095,-0.7069153,0.73895573,0.60435482,49.650331,-3.9683871)"
       clip-path="url(#clipPath3504)" />
  </g>
  <g
     inkscape:groupmode="layer"
     id="layer3"
     inkscape:label="Color Spots"
     style="display:inline"
     sodipodi:insensitive="true">
    <path
       style="fill:#ff0000;fill-opacity:1;stroke:#000000;stroke-width:0;stroke-miterlimit:4;stroke-dasharray:none;filter:url(#filter11099)"
       d="m 329.15519,395.79404 c 35.76081,-35.49289 66.9971,-15.24475 41.35053,12.07183 -25.6466,27.31658 -59.89797,12.19826 -41.35053,-12.07183 z"
       id="path3004"
       inkscape:connector-curvature="0" />
    <path
       style="fill:#ff6600;fill-opacity:1;stroke:#000000;stroke-width:0;stroke-miterlimit:4;stroke-dasharray:none;filter:url(#filter11099)"
       d="m 422.68249,255.02178 c 11.36972,-40.76892 57.41051,-28.86249 50.56853,2.10226 -6.84201,30.96475 -52.33554,24.47727 -50.56853,-2.10226 z"
       id="path3004-3"
       inkscape:connector-curvature="0" />
    <path
       style="fill:#ffff00;fill-opacity:1;stroke:#000000;stroke-width:0;stroke-miterlimit:4;stroke-dasharray:none;filter:url(#filter11099)"
       d="m 428.03551,131.79633 c -10.58799,-40.89293 37.82682,-43.970342 47.5153,-13.45715 9.68852,30.51319 -35.42875,38.39968 -47.5153,13.45715 z"
       id="path3004-3-9"
       inkscape:connector-curvature="0" />
    <path
       style="fill:#00ff00;fill-opacity:1;stroke:#000000;stroke-width:0;stroke-miterlimit:4;stroke-dasharray:none;filter:url(#filter11099)"
       d="m 292.10172,29.251132 c 40.40156,21.209393 2.02206,51.56164 -29.6294,36.7806 -31.65159,-14.781058 0.2492,-46.428299 29.6294,-36.7806 z"
       id="path3004-3-9-1-6"
       inkscape:connector-curvature="0" />
    <path
       style="fill:#0000ff;fill-opacity:1;stroke:#000000;stroke-width:0;stroke-miterlimit:4;stroke-dasharray:none;filter:url(#filter11099)"
       d="m 153.7293,142.75278 c -52.78797,15.7152 -69.024494,-21.38313 -30.08116,-34.50026 38.9434,-13.117202 60.8764,20.53646 30.08116,34.50026 z"
       id="path3004-3-9-1-6-6-5-2"
       inkscape:connector-curvature="0" />
    <path
       style="fill:#be00ff;fill-opacity:1;stroke:#000000;stroke-width:0;stroke-miterlimit:4;stroke-dasharray:none;filter:url(#filter11099)"
       d="m 90.58985,297.18995 c -32.430917,33.43448 -67.841712,7.88894 -44.840572,-18.07853 23.001128,-25.96757 60.850792,-5.5243 44.840572,18.07853 z"
       id="path3004-3-9-1-6-6-5-2-4"
       inkscape:connector-curvature="0" />
  </g>
</svg>
